<mxfile host="app.diagrams.net" modified="2022-06-14T12:58:11.226Z" agent="5.0 (Windows NT 10.0; Win64; x64) AppleWebKit/537.36 (KHTML, like Gecko) Chrome/102.0.5005.63 Safari/537.36 Edg/102.0.1245.39" etag="9lWS0TDV8t5R0_ycEULr" version="20.0.1" type="github">
  <diagram id="SeIsUrtBNTpN6HR5mpuR" name="Page-1">
    <mxGraphModel dx="1038" dy="571" grid="1" gridSize="10" guides="1" tooltips="1" connect="1" arrows="1" fold="1" page="1" pageScale="1" pageWidth="827" pageHeight="1169" math="0" shadow="0">
      <root>
        <mxCell id="0" />
        <mxCell id="1" parent="0" />
        <mxCell id="XgmFFbh3C1kBjnK7QFHw-1" value="Bank" style="swimlane;fontStyle=1;align=center;verticalAlign=top;childLayout=stackLayout;horizontal=1;startSize=26;horizontalStack=0;resizeParent=1;resizeParentMax=0;resizeLast=0;collapsible=1;marginBottom=0;fontSize=16;" vertex="1" parent="1">
          <mxGeometry x="90" y="93" width="160" height="66" as="geometry" />
        </mxCell>
        <mxCell id="XgmFFbh3C1kBjnK7QFHw-2" value="" style="line;strokeWidth=1;fillColor=none;align=left;verticalAlign=middle;spacingTop=-1;spacingLeft=3;spacingRight=3;rotatable=0;labelPosition=right;points=[];portConstraint=eastwest;" vertex="1" parent="XgmFFbh3C1kBjnK7QFHw-1">
          <mxGeometry y="26" width="160" height="14" as="geometry" />
        </mxCell>
        <mxCell id="XgmFFbh3C1kBjnK7QFHw-3" value="+createAccount()" style="text;strokeColor=none;fillColor=none;align=left;verticalAlign=top;spacingLeft=4;spacingRight=4;overflow=hidden;rotatable=0;points=[[0,0.5],[1,0.5]];portConstraint=eastwest;fontSize=14;" vertex="1" parent="XgmFFbh3C1kBjnK7QFHw-1">
          <mxGeometry y="40" width="160" height="26" as="geometry" />
        </mxCell>
        <mxCell id="XgmFFbh3C1kBjnK7QFHw-4" value="1" style="endArrow=open;html=1;endSize=12;startArrow=diamondThin;startSize=14;startFill=1;edgeStyle=orthogonalEdgeStyle;align=left;verticalAlign=bottom;rounded=0;fontSize=14;" edge="1" parent="1">
          <mxGeometry x="0.625" relative="1" as="geometry">
            <mxPoint x="250" y="123" as="sourcePoint" />
            <mxPoint x="410" y="123" as="targetPoint" />
            <Array as="points">
              <mxPoint x="320" y="123" />
              <mxPoint x="320" y="123" />
            </Array>
            <mxPoint as="offset" />
          </mxGeometry>
        </mxCell>
        <mxCell id="XgmFFbh3C1kBjnK7QFHw-5" value="+account #" style="text;html=1;align=center;verticalAlign=middle;resizable=0;points=[];autosize=1;strokeColor=none;fillColor=none;fontSize=14;" vertex="1" parent="1">
          <mxGeometry x="270" y="103" width="80" height="20" as="geometry" />
        </mxCell>
        <mxCell id="XgmFFbh3C1kBjnK7QFHw-6" value="Account" style="swimlane;fontStyle=1;align=center;verticalAlign=top;childLayout=stackLayout;horizontal=1;startSize=26;horizontalStack=0;resizeParent=1;resizeParentMax=0;resizeLast=0;collapsible=1;marginBottom=0;fontSize=16;" vertex="1" parent="1">
          <mxGeometry x="410" y="70" width="290" height="180" as="geometry" />
        </mxCell>
        <mxCell id="XgmFFbh3C1kBjnK7QFHw-7" value="-balance: Money = 0" style="text;strokeColor=none;fillColor=none;align=left;verticalAlign=top;spacingLeft=4;spacingRight=4;overflow=hidden;rotatable=0;points=[[0,0.5],[1,0.5]];portConstraint=eastwest;fontSize=14;" vertex="1" parent="XgmFFbh3C1kBjnK7QFHw-6">
          <mxGeometry y="26" width="290" height="26" as="geometry" />
        </mxCell>
        <mxCell id="XgmFFbh3C1kBjnK7QFHw-8" value="" style="line;strokeWidth=1;fillColor=none;align=left;verticalAlign=middle;spacingTop=-1;spacingLeft=3;spacingRight=3;rotatable=0;labelPosition=right;points=[];portConstraint=eastwest;fontSize=14;" vertex="1" parent="XgmFFbh3C1kBjnK7QFHw-6">
          <mxGeometry y="52" width="290" height="8" as="geometry" />
        </mxCell>
        <mxCell id="XgmFFbh3C1kBjnK7QFHw-9" value="+getBalance() : Money&#xa;+deposit(amount)&#xa;+withdraw(amount) : boolean&#xa;+register(observer : AccountObserver)&#xa;+unregister(observer : AccountObserver)&#xa;+notifyObservers()&#xa;" style="text;strokeColor=none;fillColor=none;align=left;verticalAlign=top;spacingLeft=4;spacingRight=4;overflow=hidden;rotatable=0;points=[[0,0.5],[1,0.5]];portConstraint=eastwest;fontSize=14;" vertex="1" parent="XgmFFbh3C1kBjnK7QFHw-6">
          <mxGeometry y="60" width="290" height="120" as="geometry" />
        </mxCell>
        <mxCell id="XgmFFbh3C1kBjnK7QFHw-10" value="AccountObserver" style="swimlane;fontStyle=1;align=center;verticalAlign=top;childLayout=stackLayout;horizontal=1;startSize=26;horizontalStack=0;resizeParent=1;resizeParentMax=0;resizeLast=0;collapsible=1;marginBottom=0;fontSize=16;" vertex="1" parent="1">
          <mxGeometry x="450" y="330" width="220" height="66" as="geometry" />
        </mxCell>
        <mxCell id="XgmFFbh3C1kBjnK7QFHw-11" value="" style="line;strokeWidth=1;fillColor=none;align=left;verticalAlign=middle;spacingTop=-1;spacingLeft=3;spacingRight=3;rotatable=0;labelPosition=right;points=[];portConstraint=eastwest;" vertex="1" parent="XgmFFbh3C1kBjnK7QFHw-10">
          <mxGeometry y="26" width="220" height="14" as="geometry" />
        </mxCell>
        <mxCell id="XgmFFbh3C1kBjnK7QFHw-12" value="+notify()" style="text;strokeColor=none;fillColor=none;align=left;verticalAlign=top;spacingLeft=4;spacingRight=4;overflow=hidden;rotatable=0;points=[[0,0.5],[1,0.5]];portConstraint=eastwest;fontSize=14;" vertex="1" parent="XgmFFbh3C1kBjnK7QFHw-10">
          <mxGeometry y="40" width="220" height="26" as="geometry" />
        </mxCell>
        <mxCell id="XgmFFbh3C1kBjnK7QFHw-13" value="ReportingObserver" style="swimlane;fontStyle=1;align=center;verticalAlign=top;childLayout=stackLayout;horizontal=1;startSize=26;horizontalStack=0;resizeParent=1;resizeParentMax=0;resizeLast=0;collapsible=1;marginBottom=0;fontSize=16;" vertex="1" parent="1">
          <mxGeometry x="20" y="318" width="280" height="110" as="geometry" />
        </mxCell>
        <mxCell id="XgmFFbh3C1kBjnK7QFHw-14" value="+reportingLimit = 10,000.00" style="text;strokeColor=none;fillColor=none;align=left;verticalAlign=top;spacingLeft=4;spacingRight=4;overflow=hidden;rotatable=0;points=[[0,0.5],[1,0.5]];portConstraint=eastwest;fontSize=14;" vertex="1" parent="XgmFFbh3C1kBjnK7QFHw-13">
          <mxGeometry y="26" width="280" height="26" as="geometry" />
        </mxCell>
        <mxCell id="XgmFFbh3C1kBjnK7QFHw-15" value="" style="line;strokeWidth=1;fillColor=none;align=left;verticalAlign=middle;spacingTop=-1;spacingLeft=3;spacingRight=3;rotatable=0;labelPosition=right;points=[];portConstraint=eastwest;" vertex="1" parent="XgmFFbh3C1kBjnK7QFHw-13">
          <mxGeometry y="52" width="280" height="8" as="geometry" />
        </mxCell>
        <mxCell id="XgmFFbh3C1kBjnK7QFHw-16" value="+setLimit(amount)&#xa;+notify()" style="text;strokeColor=none;fillColor=none;align=left;verticalAlign=top;spacingLeft=4;spacingRight=4;overflow=hidden;rotatable=0;points=[[0,0.5],[1,0.5]];portConstraint=eastwest;fontSize=14;" vertex="1" parent="XgmFFbh3C1kBjnK7QFHw-13">
          <mxGeometry y="60" width="280" height="50" as="geometry" />
        </mxCell>
        <mxCell id="XgmFFbh3C1kBjnK7QFHw-17" value="" style="endArrow=open;endFill=1;endSize=12;html=1;rounded=0;fontSize=14;exitX=0.516;exitY=1.008;exitDx=0;exitDy=0;exitPerimeter=0;" edge="1" parent="1" source="XgmFFbh3C1kBjnK7QFHw-9">
          <mxGeometry width="160" relative="1" as="geometry">
            <mxPoint x="580" y="290" as="sourcePoint" />
            <mxPoint x="560" y="330" as="targetPoint" />
          </mxGeometry>
        </mxCell>
        <mxCell id="XgmFFbh3C1kBjnK7QFHw-20" value="" style="endArrow=block;endSize=16;endFill=0;html=1;rounded=0;fontSize=14;" edge="1" parent="1">
          <mxGeometry width="160" relative="1" as="geometry">
            <mxPoint x="300" y="362.5" as="sourcePoint" />
            <mxPoint x="450" y="363" as="targetPoint" />
          </mxGeometry>
        </mxCell>
        <mxCell id="XgmFFbh3C1kBjnK7QFHw-21" value="1" style="text;align=center;fontStyle=0;verticalAlign=middle;spacingLeft=3;spacingRight=3;strokeColor=none;rotatable=0;points=[[0,0.5],[1,0.5]];portConstraint=eastwest;fontSize=14;" vertex="1" parent="1">
          <mxGeometry x="530" y="250" width="80" height="26" as="geometry" />
        </mxCell>
        <mxCell id="XgmFFbh3C1kBjnK7QFHw-22" value="*" style="text;align=center;fontStyle=1;verticalAlign=middle;spacingLeft=3;spacingRight=3;strokeColor=none;rotatable=0;points=[[0,0.5],[1,0.5]];portConstraint=eastwest;fontSize=22;" vertex="1" parent="1">
          <mxGeometry x="540" y="304" width="70" height="26" as="geometry" />
        </mxCell>
      </root>
    </mxGraphModel>
  </diagram>
</mxfile>
